<svg width="8" height="8" viewBox="0 0 8 8" fill="none" xmlns="http://www.w3.org/2000/svg">
<path fill-rule="evenodd" clip-rule="evenodd" d="M7.5356 0.464524C7.14507 0.0739997 6.51191 0.0739999 6.12138 0.464524L4.00006 2.58585L1.87874 0.464526C1.48821 0.0740013 0.855048 0.0740013 0.464524 0.464526C0.0739997 0.85505 0.0739999 1.48822 0.464524 1.87874L2.58585 4.00006L0.464528 6.12138C0.0740037 6.5119 0.0740037 7.14507 0.464528 7.53559C0.855052 7.92612 1.48822 7.92612 1.87874 7.53559L4.00006 5.41427L6.12138 7.53559C6.5119 7.92612 7.14507 7.92612 7.53559 7.53559C7.92612 7.14507 7.92612 6.5119 7.53559 6.12138L5.41427 4.00006L7.5356 1.87874C7.92612 1.48821 7.92612 0.855048 7.5356 0.464524Z" fill="#F43015"/>
</svg>
