<svg width="18" height="16" viewBox="0 0 18 16" fill="none" xmlns="http://www.w3.org/2000/svg">
<path fill-rule="evenodd" clip-rule="evenodd" d="M15.2061 0.339447C14.783 -0.0155543 14.1522 0.0396299 13.7972 0.462705L11.9465 2.66835C11.0233 2.2585 10.0319 1.99989 9 1.99989C4.02944 1.99989 0 7.99989 0 7.99989C0 7.99989 1.59117 10.3692 4.00715 12.1301L2.22707 14.2515C1.87207 14.6746 1.92725 15.3053 2.35033 15.6603C2.7734 16.0153 3.40416 15.9602 3.75916 15.5371L15.3293 1.74828C15.6843 1.3252 15.6292 0.694449 15.2061 0.339447ZM5.2962 10.5939L6.32756 9.36472C5.79669 8.32408 5.90364 7.02281 6.70186 6.07153C7.50008 5.12025 8.76301 4.78896 9.88003 5.13106L10.5918 4.28277C10.0617 4.10138 9.52811 3.99989 9 3.99989C7.28515 3.99989 5.51216 5.07 3.99094 6.47103C3.40996 7.0061 2.91387 7.54517 2.52785 7.99989C2.91387 8.45461 3.40996 8.99368 3.99094 9.52876C4.40915 9.91392 4.84638 10.2741 5.2962 10.5939Z" fill="#809398"/>
<path d="M9.15989 11.9968C10.8247 11.9331 12.5351 10.8863 14.0091 9.52876C14.59 8.99368 15.0861 8.45461 15.4721 7.99989C15.0861 7.54517 14.59 7.0061 14.0091 6.47103C13.9691 6.43422 13.929 6.39764 13.8886 6.3613L15.1749 4.82836C16.9143 6.3833 18 7.99989 18 7.99989C18 7.99989 13.9706 13.9999 9 13.9999C8.52641 13.9999 8.06135 13.9454 7.60752 13.8469L9.15989 11.9968Z" fill="#809398"/>
</svg>
