<svg width="14" height="16" viewBox="0 0 14 16" fill="none" xmlns="http://www.w3.org/2000/svg">
<path fill-rule="evenodd" clip-rule="evenodd" d="M9 4.49643C9 5.94533 8.47474 6.81642 7.96079 7.32996C7.68885 7.60168 7.40683 7.78535 7.17924 7.89485C7.10335 7.93136 7.04341 7.95514 7 7.97046C6.95659 7.95514 6.89664 7.93136 6.82076 7.89485C6.59316 7.78535 6.31115 7.60168 6.03921 7.32996C5.52526 6.81642 5 5.94533 5 4.49643C5 3.09931 5.16272 2.58598 5.30955 2.38259L5.31124 2.38016C5.3386 2.3402 5.57263 1.99841 7 1.99841C8.42737 1.99841 8.66139 2.3402 8.68876 2.38016L8.69044 2.38259C8.83727 2.58598 9 3.09931 9 4.49643ZM11 4.49643C11 8.49325 8 9.99206 7 9.99206C6 9.99206 3 8.49325 3 4.49643C3 1.7372 3.5 0 7 0C10.5 0 11 1.7372 11 4.49643ZM0.999999 16C2 16 2 16 2 16C2.00058 15.9884 2.00231 15.9567 2.00603 15.922C2.01349 15.8524 2.0296 15.7422 2.06389 15.6051C2.13274 15.3299 2.2715 14.9595 2.55 14.5884C3.07238 13.8925 4.24399 12.9897 7 12.9897C9.75601 12.9897 10.9276 13.8925 11.45 14.5884C11.7285 14.9595 11.8673 15.3299 11.9361 15.6051C11.9704 15.7422 11.9865 15.8524 11.994 15.922C11.9977 15.9567 11.9992 15.9884 11.9998 16C11.9998 16 12 16 13 16C14 16 14 16 14 16L13.9999 15.9725L13.9995 15.9517C13.9991 15.9358 13.9985 15.916 13.9973 15.8925C13.9949 15.8456 13.9906 15.7838 13.9826 15.7091C13.9666 15.5602 13.9359 15.3581 13.8764 15.1205C13.7577 14.6462 13.5215 14.0175 13.05 13.3894C12.0724 12.0869 10.244 10.9913 7 10.9913C3.75601 10.9913 1.92762 12.0869 0.949999 13.3894C0.478501 14.0175 0.242254 14.6462 0.123607 15.1205C0.0641462 15.3581 0.0333803 15.5602 0.0174087 15.7091C0.00940484 15.7838 0.0050596 15.8456 0.00271153 15.8925C0.00153661 15.916 0.000858903 15.9358 0.000474691 15.9517L9.28044e-05 15.9725L1.93715e-05 16C1.93715e-05 16 0 16 0.999999 16Z" fill="#809398"/>
</svg>
